<svg id="Layer_1" data-name="Layer 1" xmlns="http://www.w3.org/2000/svg" viewBox="0 0 156.29 156.29"><defs><style>.cls-1{fill:none;stroke:#fe7e00;stroke-miterlimit:10;}.cls-2{fill:#f15a24;}</style></defs><title>agenciamento-de-artistas</title><circle class="cls-1" cx="78.14" cy="78.14" r="77.64"/><path class="cls-2" d="M102.22,102.08c-4.68-.8-11.08-5.33-11.08-7.3v-5c0-1.85,2.51-5.32,3.58-8.52.1-.3.75,0,1.37-.71,1.18-1.45,1.35-3.66,1.62-4.67.43-1.58-1.49-1.64-1.49-1.64s1.43-8.29.16-13.53C94.66,53.6,85.42,50,81.8,50S69,53.6,67.23,60.73c-1.27,5.23.19,13.53.19,13.53s-1.85.06-1.42,1.64c.27,1,.58,3.21,1.76,4.67.62.76,1,.41,1.1.71,1.07,3.2,3.58,6.67,3.58,8.52v5c0,2-6.41,6.5-11.08,7.3-6,1-9,5.17-7.57,15.53.71,5.17,14.35,7.39,27.87,7.2,13.51.19,27.37-2,28.07-7.2C111.13,107.26,108.23,103.1,102.22,102.08Z" transform="translate(-7.86 -7.86)"/><path class="cls-2" d="M134.7,59.37a5.48,5.48,0,0,0-5.48-5.48H109.48A5.48,5.48,0,0,0,104,59.37v11a5.48,5.48,0,0,0,5.48,5.48h19.74a5.48,5.48,0,0,0,5.48-5.48Zm-25.28-3.29h19.74a3.28,3.28,0,0,1,3.09,2.19H106.34A3.29,3.29,0,0,1,109.43,56.08Zm23.08,14.26a3.34,3.34,0,0,1-3.35,3.29H109.43a3.25,3.25,0,0,1-3.24-3.29V62.66h26.32Z" transform="translate(-7.86 -7.86)"/><path class="cls-2" d="M109.43,67h8.77a1.1,1.1,0,0,0,0-2.19h-8.77a1.1,1.1,0,0,0,0,2.19Z" transform="translate(-7.86 -7.86)"/><path class="cls-2" d="M127,67h2.19a1.1,1.1,0,0,0,0-2.19H127A1.1,1.1,0,0,0,127,67Z" transform="translate(-7.86 -7.86)"/><path class="cls-2" d="M109.43,71.43h4.39a1.1,1.1,0,0,0,0-2.19h-4.39a1.1,1.1,0,0,0,0,2.19Z" transform="translate(-7.86 -7.86)"/></svg>