<svg id="Layer_1" data-name="Layer 1" xmlns="http://www.w3.org/2000/svg" viewBox="0 0 156.29 156.29"><defs><style>.cls-1{fill:none;stroke:#fe7e00;stroke-miterlimit:10;}.cls-2{fill:#f15a24;}</style></defs><title>desenvolvimento-de-projetos-culturais</title><circle class="cls-1" cx="78.14" cy="78.14" r="77.64"/><path class="cls-2" d="M82.57,91l7.84-7.85L80,72.72l-7.84,7.84a23.81,23.81,0,0,0-3.9-1.62V67.86H53.47V78.95a24.44,24.44,0,0,0-3.91,1.62l-7.84-7.84L31.29,83.16,39.13,91a23.89,23.89,0,0,0-1.62,3.9H26.43v14.76H37.51a23.89,23.89,0,0,0,1.62,3.9l-7.84,7.84,10.43,10.43L49.56,124a24.48,24.48,0,0,0,3.91,1.61v11.09H68.23V125.62a24.43,24.43,0,0,0,3.9-1.62L80,131.84l10.43-10.43-7.84-7.84a23.87,23.87,0,0,0,1.61-3.91H95.28V94.9H84.18A23.8,23.8,0,0,0,82.57,91ZM60.85,117A14.75,14.75,0,1,1,75.6,102.28,14.75,14.75,0,0,1,60.85,117Z" transform="translate(-5.46 -4.92)"/><path class="cls-2" d="M134.42,57.94V47.62h-7.76a16.39,16.39,0,0,0-1.13-2.73L131,39.4l-7.29-7.29-5.48,5.48a16.33,16.33,0,0,0-2.73-1.13V28.71H105.2v7.75a16.94,16.94,0,0,0-2.74,1.13L97,32.11l-7.3,7.29,5.48,5.48A16.33,16.33,0,0,0,94,47.62H86.28V57.94H94a16.35,16.35,0,0,0,1.13,2.73l-5.48,5.48,7.3,7.3L102.46,68a17.24,17.24,0,0,0,2.74,1.13v7.75H115.5V69.1A16.87,16.87,0,0,0,118.23,68l5.48,5.48,7.3-7.3-5.48-5.48a16.6,16.6,0,0,0,1.13-2.74Zm-24.07,5.16a10.32,10.32,0,1,1,10.32-10.31A10.31,10.31,0,0,1,110.35,63.09Z" transform="translate(-5.46 -4.92)"/></svg>