<svg id="Layer_1" data-name="Layer 1" xmlns="http://www.w3.org/2000/svg" viewBox="0 0 156.29 156.29"><defs><style>.cls-1{fill:none;stroke:#fe7e00;stroke-miterlimit:10;}.cls-2{fill:#f15a24;}</style></defs><title>editais-e-leis-de-incentivo</title><circle class="cls-1" cx="78.14" cy="78.14" r="77.64"/><path class="cls-2" d="M101.42,81.11c-12.82,0-23.2,7-23.2,15.61,0,3.83,3.23,8.2,6.63,10.93L81.54,117l10.05-6.17a32.79,32.79,0,0,0,9.82,1.48c12.81,0,23.19-7,23.19-15.61S114.23,81.11,101.42,81.11Z" transform="translate(-4.47 -3.36)"/><path class="cls-2" d="M84,46C61.61,46,43.43,58.75,43.43,74.5c0,7,5.64,15,11.59,20l-5.79,17.11,17.61-11.28a53.41,53.41,0,0,0,7.24,1.79A13.67,13.67,0,0,1,72.43,96c0-11.25,13-20.36,29-20.36,8.58,0,16.23,2.67,21.54,6.84a20.84,20.84,0,0,0,1.64-8C124.61,58.75,106.44,46,84,46Z" transform="translate(-4.47 -3.36)"/></svg>