<svg id="Layer_1" data-name="Layer 1" xmlns="http://www.w3.org/2000/svg" viewBox="0 0 50.96 50.96"><defs><style>.cls-1,.cls-2{fill:#fe7e00;}.cls-2{fill-rule:evenodd;}</style></defs><title>facebook</title><path class="cls-1" d="M32.17,8.92A25.48,25.48,0,1,0,57.65,34.4,25.48,25.48,0,0,0,32.17,8.92Zm0,47a21.5,21.5,0,1,1,21.5-21.5A21.5,21.5,0,0,1,32.17,55.9Z" transform="translate(-6.69 -8.92)"/><path class="cls-2" d="M38.21,30.5H33.78V27.27c0-1,1-1.22,1.51-1.22h2.86V21.68l-3.28,0c-4.48,0-5.5,3.25-5.5,5.34v3.5H26.12V35h3.25V47.14h4.41V35h3.75Z" transform="translate(-6.69 -8.92)"/></svg>