<svg id="Layer_1" data-name="Layer 1" xmlns="http://www.w3.org/2000/svg" viewBox="0 0 42.41 42.41"><defs><style>.cls-1{fill:#fe7e00;}</style></defs><title>instagram</title><path class="cls-1" d="M27.29,7.8A21.2,21.2,0,1,0,48.49,29,21.2,21.2,0,0,0,27.29,7.8Zm0,39.09A17.89,17.89,0,1,1,45.18,29,17.89,17.89,0,0,1,27.29,46.89Z" transform="translate(-6.09 -7.8)"/><path class="cls-1" d="M35.64,23.32H31a8.76,8.76,0,0,0-3.71-.94,8.78,8.78,0,0,0-3.71.94h-.93c0-1-.8-.94-1.26-.94H19.7c-.46,0-.76.49-.76.94-.46,0-.93.25-.93.71V34c0,.46.46.71.93.71h4.64a8.82,8.82,0,0,0,3.71.95A8.81,8.81,0,0,0,31,34.68h4.64c.47,0,.93-.25.93-.71V24C36.57,23.58,36.11,23.32,35.64,23.32ZM18.94,33.73V24.27h3.71A5.91,5.91,0,0,0,20.55,29a5.9,5.9,0,0,0,2.11,4.73ZM30.32,34a6,6,0,0,1-1.41.6l-.09,0c-.2.05-.41.09-.62.13l-.17,0a5.4,5.4,0,0,1-1.49,0l-.17,0c-.21,0-.42-.08-.62-.13l-.09,0a6,6,0,0,1-1.41-.6,5.73,5.73,0,0,1,0-9.93,5.84,5.84,0,0,1,1.41-.6l.09,0a5.46,5.46,0,0,1,.62-.13l.17,0a5.23,5.23,0,0,1,1.49,0l.17,0a5.48,5.48,0,0,1,.62.13l.09,0A5.85,5.85,0,0,1,33.19,29,5.76,5.76,0,0,1,30.32,34Zm5.32-.24H31.93A5.9,5.9,0,0,0,34,29a5.91,5.91,0,0,0-2.11-4.73h3.71Zm-8.35-9.46v.95A3.65,3.65,0,0,1,31,29h.93A4.75,4.75,0,0,0,27.29,24.27Z" transform="translate(-6.09 -7.8)"/></svg>