<svg id="Layer_1" data-name="Layer 1" xmlns="http://www.w3.org/2000/svg" viewBox="0 0 42.41 42.41"><defs><style>.cls-1,.cls-2{fill:#fe7e00;}.cls-2{fill-rule:evenodd;}</style></defs><title>linkedin</title><path class="cls-1" d="M30.37,7.48a21.2,21.2,0,1,0,21.2,21.2A21.2,21.2,0,0,0,30.37,7.48Zm0,39.09A17.89,17.89,0,1,1,48.26,28.68,17.89,17.89,0,0,1,30.37,46.57Z" transform="translate(-9.16 -7.48)"/><path class="cls-2" d="M19.77,39.28h4V23.37h-4Zm15.9-15.9A7.29,7.29,0,0,0,30.37,26V23.37h-4v15.9h4V30a3.38,3.38,0,0,1,4-2.65C36,27.46,36.94,29.69,37,30v9.28l4,0v-11A5,5,0,0,0,35.67,23.37Zm-13.91-5.3a2,2,0,1,0,2,2A2,2,0,0,0,21.76,18.07Z" transform="translate(-9.16 -7.48)"/></svg>