<svg id="Camada_1" data-name="Camada 1" xmlns="http://www.w3.org/2000/svg" viewBox="0 0 812.47 841.3"><defs><style>.cls-1{fill:#fe7e00;}.cls-2{fill:#ec5505;}.cls-3{fill:#f13c00;}.cls-4{fill:#cd1a00;}</style></defs><title>logo-vertical</title><path class="cls-1" d="M102.52,50.2,192.43,6.91l18.19,234.77c-6-.7-11.65-1.35-17.33-2l-72.86-8.91c-18.54-2.26-37.09-4.44-55.62-6.8-2.14-.27-3.34.11-4.65,1.86-6.75,9-13.64,17.91-20.49,26.84a6.13,6.13,0,0,1-2.54,2.11L47.2,223.56l-37.44-3.3c-.06-1.28-.15-2.34-.15-3.41q0-59-.06-118.08c0-2.38.61-3.67,2.86-4.74,13.68-6.54,27.28-13.26,40.9-19.92ZM43.05,206.43a35.41,35.41,0,0,0,3.89,0q28.14-3.41,56.27-6.88c16.81-2.06,33.62-4.08,50.41-6.21a4.69,4.69,0,0,1,4.91,2.2c4.81,6.5,9.79,12.88,14.71,19.29.53.69,1.12,1.32,1.68,2l.54-.35L167.93,193l28.45-2.52c.08-1.18.19-2,.19-2.9q0-44.94.06-89.88A3.8,3.8,0,0,0,194,93.76C183.89,88.92,173.78,84,163.66,79.1c-3.16-1.53-6.34-3-9.9-4.75l8.38,108.4a32.29,32.29,0,0,1-3.54,0c-20.17-2.44-40.35-4.77-60.49-7.48-4.19-.56-6.91.06-9.19,3.83-2.17,3.6-5.07,6.76-7.65,10.12l-.58-.37,4.46-14.2L67.93,173a7.53,7.53,0,0,1-.24-1.2c0-18.48,0-37-.07-55.43,0-2,1.07-2.54,2.51-3.24q33.32-16.09,66.61-32.26c4.91-2.38,9.79-4.8,14.91-7.31a9.82,9.82,0,0,0-1.15-.87c-14.43-7-28.85-14-43.32-20.95a4.31,4.31,0,0,0-3.27.18C87.8,59.74,71.75,67.68,55.62,75.46a4.68,4.68,0,0,0-3,4.49c-.46,7.41-1,14.82-1.59,22.23q-3.46,44.44-6.94,88.87C43.75,196.13,43.42,201.22,43.05,206.43Z" transform="translate(-9.55 -6.91)"/><path class="cls-2" d="M102,49.79,52.49,73.85q1.12-15.55,2.25-31.1c.38-5.1.81-10.2,1.25-15.66a25,25,0,0,1,2.66.91Q78.8,37.71,98.91,47.49A19.83,19.83,0,0,1,102,49.79Z" transform="translate(-9.55 -6.91)"/><path class="cls-3" d="M42.18,206.91c.37-5.24.7-10.36,1.1-15.46q3.48-44.69,7-89.38c.58-7.45,1.14-14.9,1.6-22.36a4.71,4.71,0,0,1,3-4.52C71,67.36,87.18,59.39,103.38,51.54a4.33,4.33,0,0,1,3.29-.18c14.56,7,29.06,14,43.57,21.07a9.88,9.88,0,0,1,1.15.88c-5.14,2.52-10.06,5-15,7.35q-33.48,16.24-67,32.44c-1.45.7-2.53,1.25-2.52,3.26.09,18.58.06,37.17.07,55.75a7.57,7.57,0,0,0,.24,1.21l17.33,1.62L80,189.21l.58.38c2.6-3.37,5.51-6.55,7.7-10.17,2.29-3.79,5-4.41,9.24-3.85,20.25,2.72,40.55,5.07,60.83,7.52a32.47,32.47,0,0,0,3.56,0l-8.43-109c3.58,1.72,6.77,3.24,10,4.78,10.18,4.92,20.34,9.88,30.55,14.74a3.82,3.82,0,0,1,2.6,4q-.11,45.19-.06,90.39c0,.87-.11,1.73-.19,2.92l-28.61,2.54L175.34,217l-.54.36c-.57-.66-1.16-1.3-1.69-2-5-6.45-10-12.87-14.79-19.4a4.71,4.71,0,0,0-4.94-2.21c-16.89,2.14-33.8,4.17-50.7,6.24q-28.3,3.47-56.59,6.92A35.61,35.61,0,0,1,42.18,206.91Z" transform="translate(-9.55 -6.91)"/><path class="cls-4" d="M163.25,182.4c-.86-10.38-1.63-20.76-2.42-31.15q-1.37-18-2.74-36-1.62-21-3.27-42.08c-.15-2-.1-1.94-1.95-1-6.16,3-78,37.85-84.55,41a2.12,2.12,0,0,0-1.47,2.21q.07,28.46,0,56.91c0,1.35.45,1.63,1.69,1.72,5.14.37,10.26.89,15.4,1.27,1.09.08,1,.49.72,1.25-.65,1.88-1.25,3.78-1.86,5.68q-1.27,3.95-2.54,7.9a1.3,1.3,0,0,0,.76-.53c3.3-4.31,6.61-8.62,9.88-13a2.15,2.15,0,0,1,2.31-1.06c3,.45,5.94.73,8.9,1.09l31,3.78q14.27,1.75,28.53,3.53C163,184.1,163.37,183.82,163.25,182.4Z" transform="translate(-9.55 -6.91)"/><path class="cls-3" d="M139.64,333.07v8h-7.15V312.89c5,0,10.08-.64,14.93.15,7.41,1.2,10.16,10.75,5.15,16.5a14,14,0,0,1-1.76,1.45l4.39,7.09c.49-.91.85-1.5,1.13-2.11,3.37-7.26,6.75-14.52,10.07-21.81.54-1.18,1.07-2.39,2.57-1.86a4.28,4.28,0,0,1,2.31,1.85c3.79,8,7.45,16,11.57,23.94V312.8h7.35v21.69h10.17v6.58c-.7,0-1.41.13-2.12.13-6.64,0-13.29,0-19.93,0-1.46,0-2.55-.24-3-1.79s-1.4-1.94-2.9-1.85a43.3,43.3,0,0,1-5.83,0c-2.21-.17-3.94.11-4.68,2.62-.14.48-1.25.92-1.93.94-3.4.09-6.81.14-10.2,0a3.76,3.76,0,0,1-2.4-1.47,21.5,21.5,0,0,1-2.71-4.58C143.74,332.72,142.11,332.33,139.64,333.07Zm.06-6.58c2.75-.78,5.85,1.14,7.52-1.9a4.67,4.67,0,0,0-.25-4.19c-1.89-2.41-4.71-.92-7.27-1.25ZM172,331.16l-3.18-7.29-3.1,7.29Z" transform="translate(-9.55 -6.91)"/><path class="cls-3" d="M803.54,848.21c-10.88,0-18.45-7.62-18.43-18.56s7.64-18.57,18.48-18.57S822,818.77,822,829.7,814.45,848.21,803.54,848.21Zm-8.85-18.57c0,5.68,3.75,9.76,9,9.71s8.83-4.1,8.87-9.61-3.83-9.77-9-9.71S794.69,824.11,794.69,829.64Z" transform="translate(-9.55 -6.91)"/><path class="cls-3" d="M37.68,272.9H47v35.6a4.29,4.29,0,0,1-4.83-1.35C37.55,302.5,32.8,298,28.09,293.4c-.57-.55-1.19-1.05-2.17-1.91v17.13H16.53V273c2.06-.66,3.6,0,5.14,1.53,4.78,4.83,9.71,9.53,14.58,14.27.32.31.67.59,1.42,1.25Z" transform="translate(-9.55 -6.91)"/><path class="cls-3" d="M92.2,319.18H85.31v-6.33h28.11c0,1.56,0,3.22,0,4.88,0,4.29,0,8.59,0,12.88,0,2.81,1.55,4.36,4.31,4.4s4.43-1.53,4.44-4.5c0-5.83,0-11.65,0-17.68h7.07c0,1.94,0,3.86,0,5.77,0,4,0,7.94,0,11.91a15,15,0,0,1-.49,4.08c-1.46,4.82-7.11,7.69-13.09,6.79-5.55-.84-9-4.63-9.11-9.95,0-3.4-.07-6.81,0-10.21,0-1.58-.52-2.21-2.11-2.12s-3.21,0-5,0V341H92.2Z" transform="translate(-9.55 -6.91)"/><path class="cls-3" d="M115.94,286.05c-2.79,0-5.37.05-7.94,0a2.05,2.05,0,0,1-1.46-.92c-2-3.59-5.07-4.57-8.84-4s-5.84,2.91-6.86,6.37c-2.11,7.13,2.64,13.76,9.41,13.17a7,7,0,0,0,6.29-4.27,2.09,2.09,0,0,1,2.32-1.54c2.33.09,4.67,0,7.25,0a14.48,14.48,0,0,1-5.85,10.88c-7.2,5.45-19,4.23-25.08-2.52-5.9-6.52-5.86-18.22.09-24.82,6.17-6.83,18-7.9,25.25-2.2A14,14,0,0,1,115.94,286.05Z" transform="translate(-9.55 -6.91)"/><path class="cls-3" d="M79.28,273v9.51c0,4.22-.19,8.44,0,12.64.6,11.11-9.25,14.89-16.3,14-8.19-1-12.36-5.85-12.37-14,0-7.29,0-14.59,0-22.07h8.85c0,.76,0,1.61,0,2.46,0,6.65,0,13.29,0,19.94,0,2.12.54,3.9,2.61,4.77,2.29,1,4.73,1.07,6.63-.66a5.45,5.45,0,0,0,1.41-3.61c.13-6.73.06-13.45.06-20.18,0-.87,0-1.75,0-2.77Z" transform="translate(-9.55 -6.91)"/><path class="cls-3" d="M164,300.41v8.21H141.4V273h22.08v8H150.62V286h11.81v8.29H150.67v6.16Z" transform="translate(-9.55 -6.91)"/><path class="cls-3" d="M118,272.91h9.22v27.32h12.81v8.41H118Z" transform="translate(-9.55 -6.91)"/><path class="cls-3" d="M44.17,323.2c-1.91,0-3.84.09-5.75-.06a2.55,2.55,0,0,1-1.56-1.2c-1.65-2.65-4.13-3.24-7-2.87a6.34,6.34,0,0,0-5.37,4.67c-2.14,6.3,2.24,12.15,8.23,10.89,1.31-.28,3-1.11,3.55-2.18,1.09-2.26,2.72-2.35,4.71-2.22,1.12.07,2.25,0,3.37,0-.12,6.76-6,11.45-13.82,11.28-8.42-.19-14.22-6.41-14-15,.18-8.39,6.46-14.37,14.94-14.23C38.45,312.36,44.3,317.28,44.17,323.2Z" transform="translate(-9.55 -6.91)"/><path class="cls-3" d="M61.75,312.74h7v3.32q0,6.93,0,13.86c0,8.41-6.42,13.33-14.63,11.22-5.38-1.39-8.06-4.77-8.09-10.31,0-6,0-12,0-18h7c0,6,0,11.77,0,17.58,0,3.69,2.67,5.52,6.17,4.28a3.64,3.64,0,0,0,2.58-3.91C61.73,324.83,61.75,318.92,61.75,312.74Z" transform="translate(-9.55 -6.91)"/><path class="cls-3" d="M79,312.91v21.72h10.4c0,1.9.07,3.58,0,5.26,0,.46-.66,1.25-1,1.26-5.48.08-11,.06-16.54.06V312.91Z" transform="translate(-9.55 -6.91)"/><path class="cls-3" d="M61.07,270.23l4.12-9.17,7.82,2.6C71.4,268.78,67.43,271,61.07,270.23Z" transform="translate(-9.55 -6.91)"/></svg>