<svg id="Layer_1" data-name="Layer 1" xmlns="http://www.w3.org/2000/svg" viewBox="0 0 156.29 156.29"><defs><style>.cls-1{fill:none;stroke:#fe7e00;stroke-miterlimit:10;}.cls-2{fill:#f15a24;fill-rule:evenodd;}</style></defs><title>marketing-cultural</title><circle class="cls-1" cx="78.14" cy="78.14" r="77.64"/><path class="cls-2" d="M62.54,94.81c2.06-9.59,11-16.8,21.7-16.8s19.65,7.21,21.7,16.8h8.86c-2.17-14.21-15-25.2-30.56-25.2s-28.37,11-30.55,25.2Z" transform="translate(-6.09 -6.86)"/><path class="cls-2" d="M84.24,61.21A4.32,4.32,0,0,0,88.67,57v-8.4a4.43,4.43,0,0,0-8.85,0V57A4.32,4.32,0,0,0,84.24,61.21Z" transform="translate(-6.09 -6.86)"/><path class="cls-2" d="M124.94,60.4a4.6,4.6,0,0,0-6.26,0l-6.26,5.94a4,4,0,0,0,0,5.94,4.6,4.6,0,0,0,6.26,0l6.26-5.94A4,4,0,0,0,124.94,60.4Z" transform="translate(-6.09 -6.86)"/><path class="cls-2" d="M56.06,66.35,49.8,60.4a4.6,4.6,0,0,0-6.26,0,4.05,4.05,0,0,0,0,5.94l6.26,5.94a4.6,4.6,0,0,0,6.26,0A4,4,0,0,0,56.06,66.35Z" transform="translate(-6.09 -6.86)"/><path class="cls-2" d="M110.81,103.21H57.67a4.2,4.2,0,1,0,0,8.4h53.14a4.2,4.2,0,1,0,0-8.4Z" transform="translate(-6.09 -6.86)"/><path class="cls-2" d="M102,120H66.53a4.2,4.2,0,1,0,0,8.4H102a4.21,4.21,0,1,0,0-8.4Z" transform="translate(-6.09 -6.86)"/></svg>