<svg id="Layer_1" data-name="Layer 1" xmlns="http://www.w3.org/2000/svg" viewBox="0 0 42.41 42.41"><defs><style>.cls-1,.cls-2{fill:#fe7e00;}.cls-2{fill-rule:evenodd;}</style></defs><title>youtube</title><path class="cls-1" d="M28.76,8.45A21.2,21.2,0,1,0,50,29.65,21.2,21.2,0,0,0,28.76,8.45Zm0,39.09A17.89,17.89,0,1,1,46.66,29.65,17.89,17.89,0,0,1,28.76,47.54Z" transform="translate(-7.56 -8.45)"/><path class="cls-2" d="M25.36,19.05l-.84,3.27h-.08l-.88-3.27H22.18l1.74,5.43v2.28h1V24.33l1.82-5.28Zm4.35,3.57a1.71,1.71,0,0,0-.41-1.18,1.13,1.13,0,0,0-1-.48,1.32,1.32,0,0,0-1,.48,1.44,1.44,0,0,0-.47,1.14v2.53a1.63,1.63,0,0,0,.48,1.23,1.17,1.17,0,0,0,1,.45c.55,0,.62-.15.93-.44a1.59,1.59,0,0,0,.46-1.22ZM33.56,21h-1v3.86a5.56,5.56,0,0,1-.71.82.19.19,0,0,1-.19-.1.5.5,0,0,1-.08-.31V21h-1v4.69a1.87,1.87,0,0,0,.23,1.09.8.8,0,0,0,.93-.13,3,3,0,0,0,.79-1v1h1Zm5.8,11.67a3.92,3.92,0,0,0-3.87-4H22a3.92,3.92,0,0,0-3.87,4v3.67a3.92,3.92,0,0,0,3.87,4H35.49a3.92,3.92,0,0,0,3.87-4ZM34,38.31a1.32,1.32,0,0,1-1-.42,1.62,1.62,0,0,1-.38-1.14V34.47A2.7,2.7,0,0,1,33,33a1.44,1.44,0,0,1,1.07-.42,1.35,1.35,0,0,1,1,.38,3,3,0,0,1,.36,1.55v1H33.62v1.28a1.12,1.12,0,0,0,.1.56.36.36,0,0,0,.33.16.39.39,0,0,0,.34-.13,1.11,1.11,0,0,0,.1-.58v-.23h1v.26a1.64,1.64,0,0,1-.37,1.17A1.46,1.46,0,0,1,34,38.31Zm.46-3.67v-.18a3.37,3.37,0,0,0-.1-.9.38.38,0,0,0-.33-.14.39.39,0,0,0-.34.14,3.37,3.37,0,0,0-.1.9v.18Zm-3.75,3.68a1.15,1.15,0,0,1-.53-.12,1.31,1.31,0,0,1-.43-.36v.41h-1V30.6h1v2.31a1.94,1.94,0,0,1,.49-.37,1,1,0,0,1,.47-.13.86.86,0,0,1,.73.34,1.64,1.64,0,0,1,.25,1v3.41a1.38,1.38,0,0,1-.23.86A.84.84,0,0,1,30.74,38.33Zm0-4.52a.71.71,0,0,0-.19-.41.39.39,0,0,0-.32-.13.48.48,0,0,0-.22.05,1,1,0,0,0-.27.16v3.77a1.08,1.08,0,0,0,.3.19.51.51,0,0,0,.24.06.32.32,0,0,0,.27-.12.59.59,0,0,0,.17-.36Zm-3.92,3.81a2.58,2.58,0,0,1-.58.54,1.15,1.15,0,0,1-.59.17.61.61,0,0,1-.53-.23,1.15,1.15,0,0,1-.21-.7V32.55h1V37a.46.46,0,0,0,.06.27.25.25,0,0,0,.21.08.72.72,0,0,0,.34-.11,1.72,1.72,0,0,0,.37-.28V32.55h1v5.76h-1Zm-2.84.69H23V31.57H22v-1h2.9v1h-1Zm4.33-12.57a.48.48,0,0,1-.37-.14.52.52,0,0,1-.13-.38V22.54a.41.41,0,0,1,.14-.32.52.52,0,0,1,.36-.12.43.43,0,0,1,.33.12.4.4,0,0,1,.15.32v2.69a.52.52,0,0,1-.14.38A.42.42,0,0,1,28.28,25.74Z" transform="translate(-7.56 -8.45)"/></svg>